# xmcd
# 
# Track frame offsets:
#     150
#     17286
#     35280
#     52865
#     72460
#     95074
#     113473
#     129914
#     151221
#     173444
# 
# Disc length: 2592
# 
# Revision: 11
# Processed by: cddbd v1.5.2PL0 Copyright (c) Steve Scherf et al.
# Submitted via: fre:ac v1.1beta1pre4
# 
DISCID=690a1e0a
DTITLE=Cocteau Twins - Milk and Kisses
DYEAR=2006
DGENRE=Alternative
TTITLE0=Violaine
TTITLE1=Serpentskirt
TTITLE2=Tishbite
TTITLE3=Half-gifts
TTITLE4=Calfskin Smack
TTITLE5=Rilkean Heart (Alt Mix)
TTITLE6=Ups
TTITLE7=Eperdu
TTITLE8=Treasure Hiding
TTITLE9=Seekers Who Are Lovers (Alt Mix)
EXTD=(c) 1996 Capitol Records YEAR: 2007
EXTT0=
EXTT1=
EXTT2=
EXTT3=
EXTT4=
EXTT5=
EXTT6=
EXTT7=
EXTT8=
EXTT9=
PLAYORDER=
